<svg width="22" height="18" viewBox="0 0 22 18" fill="none" xmlns="http://www.w3.org/2000/svg">
<path fill-rule="evenodd" clip-rule="evenodd" d="M3.9285 1.64307C2.46889 1.64307 1.28564 2.82631 1.28564 4.28592V13.7145C1.28564 15.1741 2.46889 16.3574 3.9285 16.3574H18.0714C19.531 16.3574 20.7142 15.1741 20.7142 13.7145V4.28592C20.7142 2.82631 19.531 1.64307 18.0714 1.64307H3.9285ZM0.285645 4.28592C0.285645 2.27403 1.91661 0.643066 3.9285 0.643066H18.0714C20.0833 0.643066 21.7142 2.27403 21.7142 4.28592V13.7145C21.7142 15.7264 20.0833 17.3574 18.0714 17.3574H3.9285C1.91661 17.3574 0.285645 15.7264 0.285645 13.7145V4.28592Z" fill="black"/>
<path fill-rule="evenodd" clip-rule="evenodd" d="M8.95987 5.91508C8.93935 5.91453 8.91907 5.91959 8.90121 5.92971C8.88335 5.93983 8.86859 5.95463 8.85852 5.97252C8.84844 5.9904 8.84344 6.0107 8.84404 6.03122L8.84426 6.04593V12.6504C8.84406 12.6731 8.84983 12.6954 8.86103 12.7151C8.87223 12.7348 8.88844 12.7512 8.90802 12.7626C8.9276 12.7741 8.94986 12.7801 8.97252 12.7802C8.99497 12.7802 9.01704 12.7744 9.03653 12.7633L14.6912 9.46468C14.7104 9.45335 14.7267 9.43702 14.7377 9.41768C14.7489 9.39823 14.7547 9.3762 14.7547 9.35378C14.7547 9.33137 14.7489 9.30934 14.7377 9.28989C14.7267 9.27055 14.7108 9.25443 14.6916 9.2431L9.03518 5.94353C9.02927 5.94008 9.02343 5.93652 9.01767 5.93283C9.00038 5.92177 8.98039 5.91563 8.95987 5.91508ZM8.4082 5.05969C8.58431 4.95989 8.78431 4.91002 8.98666 4.91544C9.18508 4.92075 9.3784 4.97904 9.54661 5.08416L15.1973 8.38039C15.367 8.47997 15.5077 8.62218 15.6055 8.79293C15.7033 8.96368 15.7547 9.15702 15.7547 9.35378C15.7547 9.55055 15.7033 9.74389 15.6055 9.91464C15.5077 10.0854 15.367 10.2276 15.1973 10.3272L15.1962 10.3278L9.53905 13.6278L9.53714 13.6289C9.36483 13.7284 9.16928 13.7806 8.97031 13.7802C8.77133 13.7797 8.57601 13.7267 8.40415 13.6264C8.23229 13.5262 8.08998 13.3823 7.99165 13.2093C7.89376 13.037 7.84293 12.8421 7.84426 12.644L7.84428 12.6414L8.34426 12.6459H7.84426V12.644V6.0522C7.84432 6.05501 7.84439 6.05782 7.84448 6.06064L8.34426 6.04593H7.84426V6.0522C7.8399 5.85274 7.88925 5.65572 7.9872 5.4818C8.08653 5.30542 8.23209 5.15948 8.4082 5.05969Z" fill="black"/>
</svg>
